<svg xmlns="http://www.w3.org/2000/svg" viewBox="0 0 920 510" width="920" height="510"
     font-family="-apple-system,BlinkMacSystemFont,'Segoe UI',system-ui,sans-serif">
  <defs>
    <!-- Loss area gradient -->
    <linearGradient id="lossGrad" x1="0" y1="0" x2="0" y2="1">
      <stop offset="0%"   stop-color="#16a34a" stop-opacity="0.45"/>
      <stop offset="100%" stop-color="#16a34a" stop-opacity="0.04"/>
    </linearGradient>
    <!-- Ping line glow -->
    <filter id="blueGlow" x="-20%" y="-100%" width="140%" height="300%">
      <feGaussianBlur stdDeviation="2.5" result="blur"/>
      <feMerge><feMergeNode in="blur"/><feMergeNode in="SourceGraphic"/></feMerge>
    </filter>
    <!-- Card shadow -->
    <filter id="cardShadow" x="-2%" y="-2%" width="104%" height="106%">
      <feDropShadow dx="0" dy="3" stdDeviation="6" flood-color="#00000014"/>
    </filter>
    <!-- Callout shadow -->
    <filter id="noteShadow" x="-5%" y="-10%" width="110%" height="130%">
      <feDropShadow dx="0" dy="2" stdDeviation="3" flood-color="#0000001a"/>
    </filter>
    <!-- Arrowhead -->
    <marker id="arr" markerWidth="8" markerHeight="8" refX="7" refY="3" orient="auto">
      <path d="M0,0.5 L0,5.5 L7,3 Z" fill="#94a3b8"/>
    </marker>
  </defs>

  <!-- ── Card background ── -->
  <rect width="920" height="510" rx="16" fill="#f8fafc" stroke="#e2e8f0" stroke-width="1.5"
        filter="url(#cardShadow)"/>

  <!-- ── Title ── -->
  <text x="460" y="32" text-anchor="middle" font-size="17" font-weight="700" fill="#0f172a">
    How to Read the Network Health Chart
  </text>
  <text x="460" y="51" text-anchor="middle" font-size="12" fill="#64748b">
    Blue line = ping_avg_ms  ·  Green area = rolling_loss_pct  ·  Filter by interface column to compare WiFi vs Ethernet
  </text>

  <!-- ══════════════════════════════════════════════════════════
       PLOT AREA   x: 78→858  y: 62→362   785 × 300 px
       Scale: 1 unit = 6 px   (0–50 ms  /  0–50 %)
       y(v) = 362 − v × 6
  ══════════════════════════════════════════════════════════ -->

  <!-- Plot area white canvas -->
  <rect x="78" y="62" width="780" height="300" fill="white"/>

  <!-- Zone backgrounds -->
  <rect x="78"  y="62" width="192" height="300" fill="#f0fdf4"/>  <!-- ① Healthy   78–270  -->
  <rect x="270" y="62" width="120" height="300" fill="#fefce8"/>  <!-- ② Warning  270–390  -->
  <rect x="390" y="62" width="225" height="300" fill="#fff1f2"/>  <!-- ③ Outage   390–615  -->
  <rect x="615" y="62" width="243" height="300" fill="#eff6ff"/>  <!-- ④ Recovery 615–858  -->

  <!-- Zone dividers -->
  <line x1="270" y1="62" x2="270" y2="362" stroke="#cbd5e1" stroke-width="1" stroke-dasharray="5,3"/>
  <line x1="390" y1="62" x2="390" y2="362" stroke="#cbd5e1" stroke-width="1" stroke-dasharray="5,3"/>
  <line x1="615" y1="62" x2="615" y2="362" stroke="#cbd5e1" stroke-width="1" stroke-dasharray="5,3"/>

  <!-- Horizontal grid lines  y=302(10) 242(20) 182(30) 122(40) -->
  <line x1="78" y1="302" x2="858" y2="302" stroke="#e2e8f0" stroke-width="1"/>
  <line x1="78" y1="242" x2="858" y2="242" stroke="#e2e8f0" stroke-width="1"/>
  <line x1="78" y1="182" x2="858" y2="182" stroke="#e2e8f0" stroke-width="1"/>
  <line x1="78" y1="122" x2="858" y2="122" stroke="#e2e8f0" stroke-width="1"/>

  <!-- Plot border -->
  <rect x="78" y="62" width="780" height="300" fill="none" stroke="#e2e8f0" stroke-width="1.5"/>

  <!-- ── Left Y-axis labels (ms) ── -->
  <text x="72" y="366" text-anchor="end" font-size="10" fill="#94a3b8">0</text>
  <text x="72" y="306" text-anchor="end" font-size="10" fill="#94a3b8">10</text>
  <text x="72" y="246" text-anchor="end" font-size="10" fill="#94a3b8">20</text>
  <text x="72" y="186" text-anchor="end" font-size="10" fill="#94a3b8">30</text>
  <text x="72" y="126" text-anchor="end" font-size="10" fill="#94a3b8">40</text>
  <text x="72" y="66"  text-anchor="end" font-size="10" fill="#94a3b8">50</text>
  <text x="22" y="218" text-anchor="middle" font-size="10" fill="#3b82f6"
        transform="rotate(-90,22,218)">ping_avg_ms</text>

  <!-- ── Right Y-axis labels (%) ── -->
  <text x="862" y="366" font-size="10" fill="#16a34a">0%</text>
  <text x="862" y="306" font-size="10" fill="#16a34a">10%</text>
  <text x="862" y="246" font-size="10" fill="#16a34a">20%</text>
  <text x="862" y="186" font-size="10" fill="#16a34a">30%</text>
  <text x="862" y="126" font-size="10" fill="#16a34a">40%</text>
  <text x="862" y="66"  font-size="10" fill="#16a34a">50%</text>
  <text x="898" y="218" text-anchor="middle" font-size="10" fill="#16a34a"
        transform="rotate(90,898,218)">rolling_loss_pct</text>

  <!-- ── X-axis timestamps ── -->
  <text x="174" y="378" text-anchor="middle" font-size="10" fill="#94a3b8">14:30</text>
  <text x="330" y="378" text-anchor="middle" font-size="10" fill="#94a3b8">14:32</text>
  <text x="502" y="378" text-anchor="middle" font-size="10" fill="#94a3b8">14:34</text>
  <text x="736" y="378" text-anchor="middle" font-size="10" fill="#94a3b8">14:36</text>

  <!-- ══ LOSS AREA ══
       y_loss = 362 - pct*6
       0%=362  12.5%=287  22%=230  30%=182  36%=146  42%=110  50%=62
  -->
  <path d="
    M 78,362
    L 270,362
    L 286,356  L 302,345  L 318,334  L 334,345  L 352,356  L 390,362
    L 410,287  L 430,230  L 450,182  L 470,146  L 490,110  L 510,62
    L 530,62   L 550,62   L 570,62   L 590,62   L 615,62
    L 632,110  L 649,158  L 666,206  L 683,254  L 700,302  L 715,334
    L 728,356  L 742,362
    L 858,362
    Z"
    fill="url(#lossGrad)" stroke="#22c55e" stroke-width="1.8" stroke-linejoin="round"/>

  <!-- ══ PING LINE ══
       y_ping = 362 - ms*6
       10ms=302  11ms=296  12ms=290  13ms=284  14ms=278  15ms=272  22ms=230
  -->
  <!-- Healthy section -->
  <polyline
    points="88,290 106,302 124,278 142,296 160,284 178,272 196,296 214,278 232,290 250,284 268,290"
    fill="none" stroke="#3b82f6" stroke-width="2.8"
    stroke-linejoin="round" stroke-linecap="round"
    filter="url(#blueGlow)"/>
  <!-- Warning section (spike at x=292) -->
  <polyline
    points="268,290 270,290 292,230 314,254 336,278 358,284 380,290 390,290"
    fill="none" stroke="#3b82f6" stroke-width="2.8"
    stroke-linejoin="round" stroke-linecap="round"
    filter="url(#blueGlow)"/>
  <!-- Recovery section (gap = outage) -->
  <polyline
    points="620,290 638,278 656,296 674,284 692,272 710,296 728,284 746,290 764,278 782,296 800,284 818,290 840,278 856,290"
    fill="none" stroke="#3b82f6" stroke-width="2.8"
    stroke-linejoin="round" stroke-linecap="round"
    filter="url(#blueGlow)"/>

  <!-- Key event markers -->
  <circle cx="292" cy="230" r="5.5" fill="#f59e0b" stroke="white" stroke-width="2"/>
  <circle cx="620" cy="290" r="5.5" fill="#22c55e" stroke="white" stroke-width="2"/>

  <!-- ══ ZONE LABEL CHIPS ══ -->
  <rect x="86"  y="68" width="84" height="19" rx="9.5" fill="#dcfce7"/>
  <text x="128" y="81" text-anchor="middle" font-size="10" font-weight="700" fill="#166534">① HEALTHY</text>

  <rect x="278" y="68" width="64" height="19" rx="9.5" fill="#fef9c3"/>
  <text x="310" y="81" text-anchor="middle" font-size="10" font-weight="700" fill="#854d0e">② WARN</text>

  <rect x="456" y="68" width="68" height="19" rx="9.5" fill="#fee2e2"/>
  <text x="490" y="81" text-anchor="middle" font-size="10" font-weight="700" fill="#991b1b">③ OUTAGE</text>

  <rect x="673" y="68" width="84" height="19" rx="9.5" fill="#dbeafe"/>
  <text x="715" y="81" text-anchor="middle" font-size="10" font-weight="700" fill="#1e3a8a">④ RECOVERY</text>

  <!-- ══ ANNOTATION CALLOUTS ══ -->

  <!-- Callout A: Healthy — bottom of zone -->
  <rect x="83" y="316" width="180" height="40" rx="7"
        fill="white" stroke="#bbf7d0" stroke-width="1.5" filter="url(#noteShadow)"/>
  <text x="173" y="331" text-anchor="middle" font-size="10" font-weight="600" fill="#166534">Steady ~12 ms / jitter &lt;2 ms</text>
  <text x="173" y="347" text-anchor="middle" font-size="10" fill="#6b7280">Loss flat at 0%</text>

  <!-- Callout B: Warning spike (arrow from callout down-right to spike dot) -->
  <rect x="277" y="100" width="168" height="40" rx="7"
        fill="white" stroke="#fde68a" stroke-width="1.5" filter="url(#noteShadow)"/>
  <text x="361" y="115" text-anchor="middle" font-size="10" font-weight="600" fill="#92400e">Latency spike + jitter ↑</text>
  <text x="361" y="131" text-anchor="middle" font-size="10" fill="#6b7280">Early warning — still online</text>
  <line x1="330" y1="140" x2="295" y2="224" stroke="#94a3b8" stroke-width="1.2"
        stroke-dasharray="4,3" marker-end="url(#arr)"/>

  <!-- Callout C: Outage (no line) -->
  <rect x="398" y="175" width="204" height="40" rx="7"
        fill="white" stroke="#fecaca" stroke-width="1.5" filter="url(#noteShadow)"/>
  <text x="500" y="190" text-anchor="middle" font-size="10" font-weight="600" fill="#991b1b">ping_avg_ms: — (no response)</text>
  <text x="500" y="206" text-anchor="middle" font-size="10" fill="#6b7280">Cells blank in CSV · status=timeout</text>
  <line x1="500" y1="215" x2="500" y2="278" stroke="#94a3b8" stroke-width="1.2"
        stroke-dasharray="4,3" marker-end="url(#arr)"/>

  <!-- Callout D: Loss climbing -->
  <rect x="400" y="92" width="195" height="40" rx="7"
        fill="white" stroke="#fecaca" stroke-width="1.5" filter="url(#noteShadow)"/>
  <text x="497" y="107" text-anchor="middle" font-size="10" font-weight="600" fill="#991b1b">rolling_loss_pct climbing</text>
  <text x="497" y="123" text-anchor="middle" font-size="10" fill="#6b7280">+12.5 pp per cycle · peaks at 50%</text>
  <line x1="497" y1="132" x2="497" y2="155" stroke="#94a3b8" stroke-width="1.2"
        stroke-dasharray="4,3" marker-end="url(#arr)"/>

  <!-- Callout E: Recovery -->
  <rect x="622" y="106" width="218" height="40" rx="7"
        fill="white" stroke="#bfdbfe" stroke-width="1.5" filter="url(#noteShadow)"/>
  <text x="731" y="121" text-anchor="middle" font-size="10" font-weight="600" fill="#1e40af">Target restored</text>
  <text x="731" y="137" text-anchor="middle" font-size="10" fill="#6b7280">Loss decays as ~60 s window clears</text>
  <line x1="660" y1="146" x2="637" y2="230" stroke="#94a3b8" stroke-width="1.2"
        stroke-dasharray="4,3" marker-end="url(#arr)"/>

  <!-- ══ BOTTOM DESCRIPTION STRIP ══ -->
  <rect x="78" y="386" width="780" height="108" rx="8"
        fill="white" stroke="#e2e8f0" stroke-width="1.2"/>

  <!-- Zone 1: Healthy -->
  <rect x="88" y="393" width="4" height="88" rx="2" fill="#22c55e"/>
  <text x="100" y="407" font-size="11" font-weight="700" fill="#166534">① Healthy</text>
  <text x="100" y="422" font-size="10" fill="#4b5563">Blue line steady and low</text>
  <text x="100" y="436" font-size="10" fill="#4b5563">Green area flat at zero</text>
  <text x="100" y="450" font-size="10" fill="#4b5563">Jitter &lt; 3 ms — no action</text>
  <text x="100" y="466" font-size="10" fill="#9ca3af">All is well ✓</text>

  <!-- Zone 2: Warning -->
  <rect x="278" y="393" width="4" height="88" rx="2" fill="#f59e0b"/>
  <text x="290" y="407" font-size="11" font-weight="700" fill="#92400e">② Warning</text>
  <text x="290" y="422" font-size="10" fill="#4b5563">Blue spikes, jitter rises</text>
  <text x="290" y="436" font-size="10" fill="#4b5563">Small loss blip (&lt;25%)</text>
  <text x="290" y="450" font-size="10" fill="#4b5563">Still reachable — unstable</text>
  <text x="290" y="466" font-size="10" fill="#9ca3af">Watch for escalation</text>

  <!-- Zone 3: Outage -->
  <rect x="468" y="393" width="4" height="88" rx="2" fill="#ef4444"/>
  <text x="480" y="407" font-size="11" font-weight="700" fill="#991b1b">③ Outage</text>
  <text x="480" y="422" font-size="10" fill="#4b5563">Blue line disappears</text>
  <text x="480" y="436" font-size="10" fill="#4b5563">Green climbs each cycle</text>
  <text x="480" y="450" font-size="10" fill="#4b5563">100% loss · notification fires</text>
  <text x="480" y="466" font-size="10" fill="#9ca3af">Traceroute saved to disk</text>

  <!-- Zone 4: Recovery -->
  <rect x="658" y="393" width="4" height="88" rx="2" fill="#3b82f6"/>
  <text x="670" y="407" font-size="11" font-weight="700" fill="#1e40af">④ Recovery</text>
  <text x="670" y="422" font-size="10" fill="#4b5563">Blue line reappears</text>
  <text x="670" y="436" font-size="10" fill="#4b5563">Green slowly fades (~60 s)</text>
  <text x="670" y="450" font-size="10" fill="#4b5563">consecutive_failures resets</text>
  <text x="670" y="466" font-size="10" fill="#9ca3af">Outage duration in CSV ✓</text>
</svg>
